<svg xmlns="http://www.w3.org/2000/svg" viewBox="0 0 300 300" fill="none">
  <!-- Ladder 1: center, upright (figure on this one) -->
  <g transform="translate(150,268) rotate(0)">
    <line x1="-18" y1="0" x2="-18" y2="-130" stroke="#94a3b8" stroke-width="5.5" stroke-linecap="round"/>
    <line x1="18" y1="0" x2="18" y2="-130" stroke="#94a3b8" stroke-width="5.5" stroke-linecap="round"/>
    <line x1="-18" y1="-22" x2="18" y2="-22" stroke="#94a3b8" stroke-width="4" stroke-linecap="round"/>
    <line x1="-18" y1="-43" x2="18" y2="-43" stroke="#94a3b8" stroke-width="4" stroke-linecap="round"/>
    <line x1="-18" y1="-65" x2="18" y2="-65" stroke="#94a3b8" stroke-width="4" stroke-linecap="round"/>
    <line x1="-18" y1="-87" x2="18" y2="-87" stroke="#94a3b8" stroke-width="4" stroke-linecap="round"/>
    <line x1="-18" y1="-108" x2="18" y2="-108" stroke="#94a3b8" stroke-width="4" stroke-linecap="round"/>
    <!-- Figure: overwhelmed pose — arms raised overhead, feet planted -->
    <circle cx="0" cy="-75" r="7" fill="#fbbf24"/>
    <g stroke="#fbbf24" stroke-width="2.5" stroke-linecap="round">
      <line x1="0" y1="-68" x2="0" y2="-53"/>
      <line x1="0" y1="-63" x2="-18" y2="-82"/>
      <line x1="0" y1="-63" x2="18" y2="-82"/>
      <line x1="0" y1="-53" x2="-7" y2="-43"/>
      <line x1="0" y1="-53" x2="7" y2="-43"/>
    </g>
    <text x="22" y="-78" font-size="13" fill="#fbbf24" font-family="sans-serif">?!</text>
  </g>
  <!-- Ladder 2: left, tilted left -->
  <g transform="translate(75,248) rotate(-18)">
    <line x1="-15" y1="0" x2="-15" y2="-100" stroke="#94a3b8" stroke-width="5" stroke-linecap="round"/>
    <line x1="15" y1="0" x2="15" y2="-100" stroke="#94a3b8" stroke-width="5" stroke-linecap="round"/>
    <line x1="-15" y1="-20" x2="15" y2="-20" stroke="#94a3b8" stroke-width="3.5" stroke-linecap="round"/>
    <line x1="-15" y1="-40" x2="15" y2="-40" stroke="#94a3b8" stroke-width="3.5" stroke-linecap="round"/>
    <line x1="-15" y1="-60" x2="15" y2="-60" stroke="#94a3b8" stroke-width="3.5" stroke-linecap="round"/>
    <line x1="-15" y1="-80" x2="15" y2="-80" stroke="#94a3b8" stroke-width="3.5" stroke-linecap="round"/>
  </g>
  <!-- Ladder 3: right, tilted right -->
  <g transform="translate(234,252) rotate(15)">
    <line x1="-15" y1="0" x2="-15" y2="-105" stroke="#94a3b8" stroke-width="5" stroke-linecap="round"/>
    <line x1="15" y1="0" x2="15" y2="-105" stroke="#94a3b8" stroke-width="5" stroke-linecap="round"/>
    <line x1="-15" y1="-21" x2="15" y2="-21" stroke="#94a3b8" stroke-width="3.5" stroke-linecap="round"/>
    <line x1="-15" y1="-42" x2="15" y2="-42" stroke="#94a3b8" stroke-width="3.5" stroke-linecap="round"/>
    <line x1="-15" y1="-63" x2="15" y2="-63" stroke="#94a3b8" stroke-width="3.5" stroke-linecap="round"/>
    <line x1="-15" y1="-84" x2="15" y2="-84" stroke="#94a3b8" stroke-width="3.5" stroke-linecap="round"/>
  </g>
  <!-- Ladder 4: upper-left, steep tilt -->
  <g transform="translate(50,188) rotate(-42)">
    <line x1="-12" y1="0" x2="-12" y2="-70" stroke="#94a3b8" stroke-width="4" stroke-linecap="round"/>
    <line x1="12" y1="0" x2="12" y2="-70" stroke="#94a3b8" stroke-width="4" stroke-linecap="round"/>
    <line x1="-12" y1="-18" x2="12" y2="-18" stroke="#94a3b8" stroke-width="2.5" stroke-linecap="round"/>
    <line x1="-12" y1="-35" x2="12" y2="-35" stroke="#94a3b8" stroke-width="2.5" stroke-linecap="round"/>
    <line x1="-12" y1="-53" x2="12" y2="-53" stroke="#94a3b8" stroke-width="2.5" stroke-linecap="round"/>
  </g>
  <!-- Ladder 5: upper-right, tilted other way -->
  <g transform="translate(262,192) rotate(35)">
    <line x1="-12" y1="0" x2="-12" y2="-76" stroke="#94a3b8" stroke-width="4" stroke-linecap="round"/>
    <line x1="12" y1="0" x2="12" y2="-76" stroke="#94a3b8" stroke-width="4" stroke-linecap="round"/>
    <line x1="-12" y1="-19" x2="12" y2="-19" stroke="#94a3b8" stroke-width="2.5" stroke-linecap="round"/>
    <line x1="-12" y1="-38" x2="12" y2="-38" stroke="#94a3b8" stroke-width="2.5" stroke-linecap="round"/>
    <line x1="-12" y1="-57" x2="12" y2="-57" stroke="#94a3b8" stroke-width="2.5" stroke-linecap="round"/>
  </g>
  <!-- Ladder 6: mid-left, slight tilt -->
  <g transform="translate(110,184) rotate(12)">
    <line x1="-11" y1="0" x2="-11" y2="-65" stroke="#94a3b8" stroke-width="3.5" stroke-linecap="round"/>
    <line x1="11" y1="0" x2="11" y2="-65" stroke="#94a3b8" stroke-width="3.5" stroke-linecap="round"/>
    <line x1="-11" y1="-16" x2="11" y2="-16" stroke="#94a3b8" stroke-width="2.5" stroke-linecap="round"/>
    <line x1="-11" y1="-33" x2="11" y2="-33" stroke="#94a3b8" stroke-width="2.5" stroke-linecap="round"/>
    <line x1="-11" y1="-49" x2="11" y2="-49" stroke="#94a3b8" stroke-width="2.5" stroke-linecap="round"/>
  </g>
  <!-- Ladder 7: mid-right, leaning opposite -->
  <g transform="translate(198,172) rotate(-28)">
    <line x1="-12" y1="0" x2="-12" y2="-72" stroke="#94a3b8" stroke-width="3.5" stroke-linecap="round"/>
    <line x1="12" y1="0" x2="12" y2="-72" stroke="#94a3b8" stroke-width="3.5" stroke-linecap="round"/>
    <line x1="-12" y1="-18" x2="12" y2="-18" stroke="#94a3b8" stroke-width="2.5" stroke-linecap="round"/>
    <line x1="-12" y1="-36" x2="12" y2="-36" stroke="#94a3b8" stroke-width="2.5" stroke-linecap="round"/>
    <line x1="-12" y1="-54" x2="12" y2="-54" stroke="#94a3b8" stroke-width="2.5" stroke-linecap="round"/>
  </g>
  <!-- Ladder 8: lower-left, nearly horizontal -->
  <g transform="translate(72,292) rotate(58)">
    <line x1="-11" y1="0" x2="-11" y2="-68" stroke="#94a3b8" stroke-width="3.5" stroke-linecap="round"/>
    <line x1="11" y1="0" x2="11" y2="-68" stroke="#94a3b8" stroke-width="3.5" stroke-linecap="round"/>
    <line x1="-11" y1="-17" x2="11" y2="-17" stroke="#94a3b8" stroke-width="2.5" stroke-linecap="round"/>
    <line x1="-11" y1="-34" x2="11" y2="-34" stroke="#94a3b8" stroke-width="2.5" stroke-linecap="round"/>
    <line x1="-11" y1="-51" x2="11" y2="-51" stroke="#94a3b8" stroke-width="2.5" stroke-linecap="round"/>
  </g>
  <!-- Ladder 9: lower-right, steeply tilted other way -->
  <g transform="translate(248,290) rotate(-52)">
    <line x1="-11" y1="0" x2="-11" y2="-70" stroke="#94a3b8" stroke-width="3.5" stroke-linecap="round"/>
    <line x1="11" y1="0" x2="11" y2="-70" stroke="#94a3b8" stroke-width="3.5" stroke-linecap="round"/>
    <line x1="-11" y1="-18" x2="11" y2="-18" stroke="#94a3b8" stroke-width="2.5" stroke-linecap="round"/>
    <line x1="-11" y1="-35" x2="11" y2="-35" stroke="#94a3b8" stroke-width="2.5" stroke-linecap="round"/>
    <line x1="-11" y1="-53" x2="11" y2="-53" stroke="#94a3b8" stroke-width="2.5" stroke-linecap="round"/>
  </g>
  <!-- Ladder 10: upper-center, small -->
  <g transform="translate(152,126) rotate(4)">
    <line x1="-10" y1="0" x2="-10" y2="-55" stroke="#94a3b8" stroke-width="3" stroke-linecap="round"/>
    <line x1="10" y1="0" x2="10" y2="-55" stroke="#94a3b8" stroke-width="3" stroke-linecap="round"/>
    <line x1="-10" y1="-14" x2="10" y2="-14" stroke="#94a3b8" stroke-width="2" stroke-linecap="round"/>
    <line x1="-10" y1="-28" x2="10" y2="-28" stroke="#94a3b8" stroke-width="2" stroke-linecap="round"/>
    <line x1="-10" y1="-41" x2="10" y2="-41" stroke="#94a3b8" stroke-width="2" stroke-linecap="round"/>
  </g>
</svg>
